<?xml version="1.0" encoding="UTF-8" standalone="no"?>
<svg xmlns="http://www.w3.org/2000/svg" viewBox="0 0 24 24" width="24" height="24" fill="currentColor">
  <path fill-rule="evenodd" clip-rule="evenodd" d="M5 2.5h8.2L19 8.3V20a1.5 1.5 0 0 1-1.5 1.5h-12A1.5 1.5 0 0 1 4 20V4A1.5 1.5 0 0 1 5 2.5zm7.5 2H5.5v15h11V9h-4.5a.5.5 0 0 1-.5-.5V4.5zm1.5 1.06V7.5h1.94L14 5.56z"/>
  <path fill-rule="evenodd" clip-rule="evenodd" d="M11 11.2a2.6 2.6 0 0 0-2.6 2.6v.6h-.5v4.1h6.2v-4.1h-.5v-.6A2.6 2.6 0 0 0 11 11.2zm1.3 3.2v-.6a1.3 1.3 0 0 0-2.6 0v.6z"/>
</svg>
